<svg version="1.1" id="Layer_1" xmlns="http://www.w3.org/2000/svg" xmlns:xlink="http://www.w3.org/1999/xlink" x="0px" y="0px"
	  viewBox="589 641 823 703"  xml:space="preserve">

<path fill="#468AC7" opacity="1.000000" stroke="none" 
	d="
M1059.361816,904.769897 
	C1046.120117,897.984863 1033.158325,891.239441 1020.209534,884.469299 
	C1018.444092,883.546204 1016.549072,882.722778 1015.073303,881.439880 
	C1013.850525,880.377014 1012.078552,878.211975 1012.448303,877.402161 
	C1013.289246,875.560730 1015.139526,873.192078 1016.862366,872.935181 
	C1021.248657,872.281250 1025.790039,872.664307 1030.269287,872.640198 
	C1032.203369,872.629761 1034.137451,872.638428 1036.679077,872.638428 
	C1036.110474,870.930908 1035.949707,869.600037 1035.290894,868.595764 
	C1024.531250,852.195862 1013.715515,835.832581 1002.882751,819.480835 
	C1002.248230,818.523071 1001.361328,817.732605 1000.306152,816.264648 
	C1000.324890,813.376404 1000.891663,811.088135 1000.894836,808.799072 
	C1000.951233,768.306396 1001.022339,727.813110 1000.796509,687.321655 
	C1000.776672,683.759399 998.716309,680.208618 997.603699,676.652466 
	C998.195679,675.347046 998.787598,674.041626 1000.039734,671.280334 
	C1060.263550,769.249634 1119.828003,866.146179 1180.079224,964.160095 
	C1139.893066,944.322144 1100.862671,925.054871 1061.483643,905.678467 
	C1060.638550,905.313538 1060.142334,905.057678 1059.361816,904.769897 
z"/>
<path fill="#468AC7" opacity="1.000000" stroke="none" 
	d="
M1117.485840,962.469116 
	C1129.214722,966.227051 1140.554077,970.014038 1151.949097,973.625305 
	C1163.756226,977.367188 1175.722412,980.641602 1187.390503,984.766785 
	C1190.870117,985.997009 1194.445068,988.831055 1196.484619,991.916321 
	C1203.074341,1001.884766 1208.836914,1012.395203 1215.168579,1022.540527 
	C1222.208130,1033.820557 1229.524902,1044.927612 1236.713867,1056.114624 
	C1237.297852,1057.023315 1237.826172,1057.967773 1238.755859,1059.524170 
	C1236.925171,1059.868774 1235.720581,1060.296387 1234.517456,1060.292847 
	C1196.688232,1060.181152 1158.858154,1059.853271 1121.031006,1060.057251 
	C1114.956543,1060.089966 1111.242432,1057.678101 1108.281250,1053.252563 
	C1093.419922,1031.042236 1078.678589,1008.751709 1063.863281,986.510559 
	C1062.783936,984.890259 1061.452393,983.438110 1059.670044,981.192017 
	C1039.885254,1011.211548 1020.500061,1040.624634 1000.723816,1070.631104 
	C998.665283,1067.493896 997.139587,1065.168701 995.954834,1062.463379 
	C997.524353,1060.697510 999.168274,1059.488770 999.856079,1057.873047 
	C1000.455017,1056.466309 999.949280,1054.599731 999.974854,1052.936890 
	C1000.296631,1032.016968 1000.638977,1011.097168 1000.944519,990.176880 
	C1001.018616,985.103821 1000.977783,980.029053 1000.989746,974.955078 
	C1009.963074,961.549988 1018.936340,948.144836 1028.105225,934.463989 
	C1029.274048,934.540222 1030.247314,934.892029 1031.804077,935.546265 
	C1051.082153,941.686646 1069.781250,947.509766 1088.469116,953.369263 
	C1097.324829,956.146057 1106.158569,958.992432 1115.002319,961.807251 
	C1115.708374,962.011780 1116.414551,962.216431 1117.485840,962.469116 
z"/>

<path fill="#041D4E" opacity="1.000000" stroke="none" 
	d="
M749.339966,1308.299072 
	C744.431396,1295.764404 739.731323,1283.530273 735.028931,1271.296753 
	C734.285034,1269.361572 733.530884,1267.430176 732.707886,1265.307251 
	C708.140320,1265.307251 683.661072,1265.272217 659.182922,1265.421265 
	C658.074036,1265.428101 656.429871,1266.875610 655.955322,1268.030273 
	C650.542969,1281.201294 645.163086,1294.390503 640.129028,1307.708984 
	C638.832275,1311.139526 638.165405,1312.661499 634.187866,1310.479126 
	C629.462646,1307.886597 624.215576,1306.244995 619.216187,1304.200073 
	C629.660645,1278.470703 639.930725,1253.171021 650.246216,1227.487061 
	C658.704895,1206.641602 667.148193,1186.192749 675.509644,1165.710449 
	C677.559875,1160.688232 679.450134,1155.593994 681.220642,1150.466187 
	C683.378296,1144.217407 688.572632,1145.827881 693.551697,1145.551880 
	C695.155457,1145.535034 696.311157,1145.643311 697.467468,1145.651611 
	C708.213684,1145.728271 708.215149,1145.722656 712.171387,1155.652466 
	C712.836731,1157.322388 713.484985,1158.999023 714.433228,1160.882568 
	C723.988403,1184.481934 733.222473,1207.883057 742.523438,1231.257568 
	C750.668701,1251.727661 758.889160,1272.167847 767.413940,1293.258057 
	C768.939819,1297.091797 770.128113,1300.288940 771.502075,1303.985718 
	C769.046875,1305.151855 766.635193,1306.297485 764.223450,1307.442871 
	C761.339417,1308.799683 758.366699,1309.998291 755.593445,1311.552612 
	C751.964722,1313.586548 750.055176,1312.672974 749.339966,1308.299072 
M714.242310,1217.205933 
	C707.974487,1201.089600 701.706665,1184.973145 694.978943,1167.674438 
	C684.362305,1194.716187 674.275574,1220.408325 664.140808,1246.222900 
	C684.827576,1246.222900 704.948975,1246.222900 725.563049,1246.222900 
	C721.766724,1236.416382 718.181458,1227.155273 714.242310,1217.205933 
z"/>

<path fill="#041D4E" opacity="1.000000" stroke="none" 
	d="
M918.055054,1214.366455 
	C923.511353,1205.723267 929.119873,1197.825928 938.323364,1192.907593 
	C958.375183,1182.192139 977.886902,1181.999634 997.214172,1194.398560 
	C998.459961,1195.197876 999.647461,1196.088013 1001.538452,1197.408203 
	C1001.538452,1194.008911 1001.538452,1191.172852 1001.538452,1188.132568 
	C1008.218079,1188.132568 1014.315491,1188.132568 1020.962769,1188.132568 
	C1020.962769,1192.187866 1020.962769,1196.134888 1021.046082,1200.541260 
	C1021.086609,1228.440308 1020.996521,1255.880493 1021.040344,1283.320190 
	C1021.049316,1288.900146 1024.169556,1292.542236 1029.489136,1294.019531 
	C1031.069336,1294.458496 1032.652100,1294.887329 1034.790649,1295.473511 
	C1033.488037,1299.932373 1032.521851,1304.404175 1030.790771,1308.557251 
	C1030.153687,1310.085938 1027.352783,1312.115967 1026.151001,1311.772949 
	C1019.597046,1309.902222 1012.189514,1309.552979 1007.700134,1303.178223 
	C1006.667603,1301.712158 1005.227844,1300.432251 1004.568909,1298.823608 
	C1002.948730,1294.868652 1000.747864,1294.828613 998.612305,1297.985718 
	C994.283569,1304.385010 987.452820,1307.428223 981.113098,1310.796387 
	C977.611084,1312.656982 972.880493,1312.385498 968.675598,1312.704834 
	C960.056458,1313.359497 951.332458,1312.853271 943.359131,1309.708374 
	C938.337097,1307.727661 934.230469,1303.425659 929.364746,1300.074829 
	C929.016357,1299.984619 929.103699,1299.935791 929.103699,1299.935791 
	C918.981750,1289.841675 913.407532,1277.299927 910.425781,1263.632568 
	C909.016602,1257.173462 907.488037,1250.116089 908.703796,1243.851807 
	C910.632324,1233.915161 914.817871,1224.416504 918.055054,1214.366455 
M956.911560,1291.851440 
	C972.008179,1296.823853 985.010071,1293.101196 996.433777,1282.472168 
	C998.912292,1280.166016 999.958252,1277.675781 999.918640,1274.201660 
	C999.736755,1258.225098 999.838623,1242.245361 999.838623,1226.266846 
	C999.838623,1211.187012 999.313171,1210.475098 984.539673,1205.761597 
	C982.958862,1205.257324 981.363647,1204.773193 979.745178,1204.415405 
	C959.162415,1199.865112 941.548218,1209.421875 934.801392,1229.414307 
	C932.814697,1235.301147 931.828613,1241.723511 931.550232,1247.952515 
	C930.646484,1268.181030 939.982300,1284.249512 956.911560,1291.851440 
z"/>
<path fill="#041D4E" opacity="1.000000" stroke="none" 
	d="
M1244.255371,1201.000610 
	C1244.208252,1227.447021 1244.021606,1253.894165 1244.190552,1280.339233 
	C1244.249146,1289.526245 1247.281616,1292.469360 1257.504028,1295.164917 
	C1256.907104,1297.817993 1256.383179,1300.499878 1255.687622,1303.136597 
	C1255.027710,1305.638916 1254.188477,1308.093994 1253.422607,1310.567871 
	C1241.258911,1312.795166 1230.873779,1306.710327 1226.115479,1294.454346 
	C1216.578613,1302.771729 1206.450439,1309.805054 1193.398438,1312.082031 
	C1192.111450,1312.150757 1191.223511,1312.130127 1189.638794,1312.389404 
	C1174.793701,1313.913818 1162.172607,1310.757324 1152.215820,1299.923706 
	C1148.317871,1293.511108 1144.514648,1287.034302 1143.825073,1279.343750 
	C1143.418091,1274.806519 1143.120972,1270.243408 1143.100830,1265.690430 
	C1143.016113,1246.435303 1143.053589,1227.179443 1142.961670,1207.462158 
	C1142.876831,1200.886353 1142.876831,1194.772461 1142.876831,1188.289551 
	C1150.065186,1188.289551 1156.892456,1188.289551 1164.201294,1188.289551 
	C1164.201294,1194.579956 1164.201294,1200.828613 1164.201294,1207.996094 
	C1164.192993,1221.734619 1164.084106,1234.555298 1164.211304,1247.373657 
	C1164.298706,1256.184204 1164.286987,1265.030273 1165.083984,1273.790894 
	C1166.233521,1286.424805 1174.983521,1293.866211 1187.463013,1294.027588 
	C1201.041870,1294.203003 1212.039917,1288.343140 1222.271851,1279.905273 
	C1222.618164,1279.644043 1222.703369,1279.332520 1222.874268,1278.558105 
	C1222.909424,1255.063354 1222.858765,1232.031494 1222.808105,1208.999634 
	C1222.807983,1202.229004 1222.807983,1195.458252 1222.807983,1188.340332 
	C1229.923828,1188.340332 1236.753174,1188.340332 1244.089600,1188.340332 
	C1244.089600,1191.576050 1244.089600,1194.830444 1244.091064,1198.872070 
	C1244.146851,1200.106445 1244.201050,1200.553589 1244.255371,1201.000610 
z"/>
<path fill="#041D4E" opacity="1.000000" stroke="none" 
	d="
M1378.604248,1294.068604 
	C1379.837769,1295.581665 1380.754761,1296.947144 1381.913086,1298.671875 
	C1376.734497,1303.084839 1371.515991,1307.531860 1365.972046,1312.256226 
	C1352.333862,1295.342285 1338.814209,1278.575317 1324.955444,1261.387573 
	C1319.862305,1267.735352 1314.846191,1274.022949 1309.791260,1280.279175 
	C1302.095581,1289.803467 1294.294800,1299.244507 1286.716675,1308.861206 
	C1284.802856,1311.289917 1283.269897,1311.506958 1281.097168,1309.503296 
	C1277.238159,1305.944458 1273.331421,1302.437622 1269.273804,1298.753906 
	C1283.803833,1281.921997 1298.326172,1265.099243 1313.260254,1247.799316 
	C1299.296997,1232.103271 1285.502197,1216.596558 1271.377197,1200.620972 
	C1272.755981,1198.125854 1274.464600,1196.099609 1276.173340,1194.073364 
	C1279.877686,1191.284546 1283.582153,1188.495605 1287.220459,1185.756470 
	C1288.778198,1187.098389 1289.972900,1188.127563 1291.526367,1189.215332 
	C1294.405518,1193.162964 1296.697876,1197.225220 1299.489868,1200.908569 
	C1307.465332,1211.430298 1315.640747,1221.800537 1323.755493,1232.216187 
	C1324.036743,1232.577148 1324.509399,1232.789062 1325.454590,1233.482544 
	C1329.829834,1227.819458 1334.165894,1222.216309 1338.491943,1216.605469 
	C1345.739136,1207.206421 1352.924316,1197.758057 1360.324951,1188.481445 
	C1360.937500,1187.713745 1363.495728,1187.438721 1364.291382,1188.050781 
	C1368.997437,1191.670898 1373.449585,1195.621094 1378.181152,1199.624268 
	C1364.701416,1215.364624 1351.353882,1230.950439 1337.565918,1247.050659 
	C1351.125366,1262.657471 1364.706543,1278.289185 1378.604248,1294.068604 
z"/>

<path fill="#041D4E" opacity="1.000000" stroke="none" 
	d="
M779.018555,1201.333984 
	C778.101013,1198.609131 777.336609,1196.217041 776.441345,1193.415405 
	C781.831238,1191.117065 787.630676,1188.520996 793.560120,1186.267090 
	C794.324280,1185.976685 796.393738,1187.196289 796.796692,1188.160400 
	C807.276672,1213.228638 817.613159,1238.356934 827.981506,1263.471924 
	C830.961365,1270.690063 833.963074,1277.899170 837.218811,1285.748901 
	C851.185547,1251.972412 864.821472,1218.995728 878.633789,1185.592407 
	C884.883545,1188.322876 890.825500,1190.918945 896.924927,1193.583740 
	C894.484680,1199.354004 892.066406,1204.904419 889.809631,1210.519653 
	C889.197998,1212.041504 889.074524,1213.759644 888.893738,1215.693848 
	C886.005493,1222.283325 882.867371,1228.528076 879.919067,1234.861084 
	C877.021301,1241.085327 874.155640,1247.333740 871.561584,1253.688110 
	C866.894470,1265.120728 862.512939,1276.669800 857.854736,1288.106079 
	C856.447083,1291.561768 854.519653,1294.805908 852.472168,1298.741455 
	C850.794922,1302.557861 849.475647,1305.779541 848.156433,1309.001221 
	C840.814514,1309.322388 833.473938,1309.693726 826.128540,1309.877563 
	C825.480713,1309.893799 824.512634,1308.807861 824.180481,1308.026611 
	C816.963013,1291.050415 809.772095,1274.062500 802.670288,1257.037476 
	C798.903992,1248.008545 795.515869,1238.817505 791.587036,1229.862061 
	C788.153015,1222.034424 784.150879,1214.457397 780.520020,1206.713257 
	C779.792480,1205.161499 779.607117,1203.355591 779.018555,1201.333984 
z"/>

<path fill="#041D4E" opacity="1.000000" stroke="none" 
	d="
M1061.805298,1214.462280 
	C1061.782959,1190.248169 1061.846436,1166.495850 1061.908447,1142.743408 
	C1061.913696,1140.760254 1061.909302,1138.776978 1061.909302,1136.466553 
	C1068.858765,1136.466553 1075.581543,1136.466553 1083.022705,1136.466553 
	C1083.022705,1141.261963 1083.022705,1146.168945 1083.023071,1151.990967 
	C1083.073242,1156.270630 1083.123169,1159.635132 1083.172974,1162.999756 
	C1083.122803,1172.691040 1083.072632,1182.382324 1083.097534,1192.537109 
	C1083.117432,1217.463135 1083.029785,1241.925903 1083.029541,1266.388550 
	C1083.029541,1272.841797 1083.322266,1279.295654 1086.250122,1285.266113 
	C1088.680420,1290.222046 1092.840088,1293.526611 1098.102905,1293.840820 
	C1103.549927,1294.166138 1109.188110,1293.374878 1114.558350,1292.217407 
	C1118.560303,1291.354980 1120.586670,1290.978516 1120.983887,1296.158569 
	C1121.292358,1300.181641 1123.271118,1304.076538 1124.919189,1309.343872 
	C1117.703735,1310.565063 1111.305786,1312.362305 1104.860718,1312.550903 
	C1097.458496,1312.767334 1089.812988,1312.385742 1082.668945,1310.641846 
	C1078.745483,1309.684082 1075.631104,1305.395020 1072.161621,1302.595947 
	C1062.525146,1294.821777 1061.954956,1283.921509 1061.939087,1272.844727 
	C1061.911499,1253.537842 1061.905640,1234.230835 1061.805298,1214.462280 
z"/>

<path fill="#47BFDD" opacity="1.000000" stroke="none" 
	d="
M997.350098,676.869629 
	C998.716309,680.208618 1000.776672,683.759399 1000.796509,687.321655 
	C1001.022339,727.813110 1000.951233,768.306396 1000.894836,808.799072 
	C1000.891663,811.088135 1000.324890,813.376404 1000.021057,816.040283 
	C994.310303,824.371094 988.402893,832.194824 982.937622,840.315979 
	C976.286804,850.198730 970.008179,860.331848 962.607605,871.852539 
	C971.921997,871.852539 980.027649,871.852539 988.133301,871.852539 
	C988.437805,872.447327 988.742249,873.042114 989.046692,873.636963 
	C987.259705,876.850403 985.649353,880.177917 983.658691,883.259827 
	C961.897827,916.948303 940.073242,950.595581 918.291016,984.270325 
	C917.523254,985.457275 917.016113,986.812866 916.119690,988.634033 
	C920.650818,988.634033 924.480286,988.634033 929.724121,988.634033 
	C925.442688,995.307617 921.839966,1000.979919 918.181091,1006.615845 
	C907.487244,1023.088318 896.698303,1039.499756 886.135803,1056.055908 
	C884.396667,1058.781738 882.537415,1059.997681 879.331604,1059.989624 
	C841.519043,1059.895264 803.706177,1059.892822 765.893433,1059.848877 
	C765.251587,1059.848145 764.609985,1059.634277 763.002747,1059.347534 
	C766.311584,1053.105469 769.234741,1047.114502 772.581604,1041.370361 
	C781.054016,1026.829102 789.461975,1012.239929 798.361877,997.960449 
	C812.309814,975.581604 826.921631,953.614441 840.748169,931.162415 
	C864.572144,892.475952 887.979370,853.533142 911.627197,814.737854 
	C917.950439,804.364380 924.706543,794.251953 930.920166,783.815125 
	C941.513428,766.022278 951.466736,747.839355 962.372314,730.243896 
	C973.518921,712.259521 985.487610,694.784668 997.350098,676.869629 
z"/>
<path fill="#47BFDD" opacity="1.000000" stroke="none" 
	d="
M1186.652466,826.923584 
	C1145.191040,836.081604 1111.336914,815.656555 1101.006714,780.680908 
	C1087.628052,735.383911 1109.744141,700.184082 1148.317871,689.157104 
	C1189.224976,677.463135 1225.897339,699.269409 1237.340576,737.565063 
	C1249.288208,777.549377 1226.421143,815.660278 1186.652466,826.923584 
M1196.403564,788.960022 
	C1198.867310,786.052917 1201.837646,783.437439 1203.707764,780.188660 
	C1212.259521,765.332642 1211.741333,750.112732 1203.472656,735.511230 
	C1195.549927,721.520630 1182.757812,715.597229 1166.789551,716.015015 
	C1143.699829,716.619202 1132.721680,727.543396 1127.994141,748.299133 
	C1123.843750,766.521240 1130.425659,781.882446 1145.098145,793.004761 
	C1153.062134,799.041748 1162.901855,801.098633 1173.096802,799.932434 
	C1181.836304,798.932739 1188.758545,793.986267 1196.403564,788.960022 
z"/>

<path fill="#47BFDD" opacity="1.000000" stroke="none" 
	d="
M1000.671387,974.846497 
	C1000.977783,980.029053 1001.018616,985.103821 1000.944519,990.176880 
	C1000.638977,1011.097168 1000.296631,1032.016968 999.974854,1052.936890 
	C999.949280,1054.599731 1000.455017,1056.466309 999.856079,1057.873047 
	C999.168274,1059.488770 997.524353,1060.697510 995.834656,1062.111328 
	C987.010437,1050.345459 978.483826,1038.663208 970.327698,1026.727661 
	C961.104736,1013.231079 952.188110,999.524353 943.242371,985.840942 
	C942.682556,984.984680 942.505249,983.177185 943.028503,982.417542 
	C953.398438,967.364075 963.898132,952.399963 974.281128,937.547058 
	C982.951721,949.915405 991.652344,962.326660 1000.671387,974.846497 
z"/>

</svg>