<svg version="1.1" id="Layer_1" xmlns="http://www.w3.org/2000/svg" xmlns:xlink="http://www.w3.org/1999/xlink" x="0px" y="0px"
	  viewBox="732 641 541 459"  xml:space="preserve">

<path fill="#468AC7" opacity="1.000000" stroke="none" 
	d="
M1000.159973,975.675964 
	C1009.409912,962.033325 1018.659851,948.390625 1028.106445,934.467163 
	C1028.902100,934.348511 1029.501221,934.510681 1030.657715,934.940247 
	C1033.062988,935.916809 1034.877441,936.733887 1036.764038,937.317871 
	C1052.281006,942.120972 1067.819702,946.854065 1083.334839,951.662720 
	C1094.236938,955.041626 1105.112549,958.505737 1116.000000,961.931763 
	C1116.430542,962.102600 1116.860962,962.273376 1117.637451,962.489136 
	C1129.371948,966.236145 1140.746460,969.981567 1152.152832,973.627502 
	C1162.688477,976.995056 1173.139526,980.731689 1183.853271,983.401428 
	C1191.399414,985.281799 1195.810791,989.955383 1199.562744,996.112610 
	C1211.240234,1015.276001 1223.024658,1034.374390 1234.790894,1053.483643 
	C1235.940552,1055.350952 1237.251099,1057.119263 1238.940552,1059.599243 
	C1236.764771,1059.936890 1235.531616,1060.298706 1234.299683,1060.294922 
	C1196.495605,1060.178833 1158.691040,1059.875488 1120.888550,1060.045898 
	C1115.289673,1060.071045 1111.598389,1058.041626 1108.813721,1053.936279 
	C1094.375977,1032.651611 1080.085938,1011.266724 1065.756592,989.908630 
	C1063.948364,987.213257 1062.212036,984.469788 1059.764038,980.705383 
	C1039.759644,1011.152527 1020.422424,1040.584106 1000.635864,1070.699829 
	C998.600098,1067.516846 997.106873,1065.182251 995.954834,1062.465332 
	C999.442688,1062.041870 999.983459,1060.130371 1000.014954,1057.416748 
	C1000.273804,1035.129761 1000.687927,1012.844666 1000.908020,990.557556 
	C1000.956909,985.599915 1000.424683,980.636658 1000.159973,975.675964 
z"/>

<path fill="#47BFDD" opacity="1.000000" stroke="none" 
	d="
M1000.012146,816.420288 
	C995.079285,823.079773 989.901123,829.573669 985.268799,836.435974 
	C977.569824,847.841187 970.221191,859.482971 961.933105,872.244507 
	C971.196533,872.244507 979.687439,872.244507 988.178284,872.244507 
	C988.479675,872.839172 988.781006,873.433777 989.082397,874.028442 
	C964.766479,911.870361 940.450500,949.712280 915.547852,988.467285 
	C920.526550,988.467285 924.431702,988.467285 929.751831,988.467285 
	C925.416077,995.338745 921.805847,1001.207153 918.051697,1006.982178 
	C907.439087,1023.307617 896.704041,1039.553955 886.178894,1055.935425 
	C884.343811,1058.791626 882.302673,1060.031982 878.892273,1060.003052 
	C848.744934,1059.746948 818.596680,1059.599609 788.448364,1059.480713 
	C782.133972,1059.455933 775.818726,1059.688354 769.503662,1059.786011 
	C767.592468,1059.815552 765.680420,1059.790405 762.172668,1059.790405 
	C768.620483,1048.784424 774.279602,1038.970703 780.092041,1029.248779 
	C785.360107,1020.437317 790.729797,1011.684692 796.174072,1002.980835 
	C802.455200,992.939209 809.014160,983.069397 815.196289,972.968201 
	C839.785095,932.791565 864.242188,892.534302 888.812439,852.346191 
	C902.703247,829.625854 916.752991,807.002747 930.670532,784.298706 
	C949.947510,752.851562 969.143860,721.354980 988.439148,689.919128 
	C991.131104,685.533447 994.189697,681.372681 997.545654,677.236694 
	C998.988953,680.789368 1000.796997,684.208923 1000.814392,687.637573 
	C1001.013062,726.777893 1000.963928,765.919678 1000.896851,805.060913 
	C1000.890381,808.847839 1000.320496,812.633850 1000.012146,816.420288 
z"/>
<path fill="#468AC7" opacity="1.000000" stroke="none" 
	d="
M1000.307739,816.634155 
	C1000.320496,812.633850 1000.890381,808.847839 1000.896851,805.060913 
	C1000.963928,765.919678 1001.013062,726.777893 1000.814392,687.637573 
	C1000.796997,684.208923 998.988953,680.789368 997.805176,677.023071 
	C998.184143,675.373291 998.770630,674.066040 1000.017700,671.286560 
	C1060.263916,769.234375 1119.854614,866.116272 1180.050293,963.981873 
	C1177.798950,963.151611 1176.574463,962.823242 1175.460693,962.271545 
	C1129.764648,939.636414 1084.058105,917.022156 1038.410889,894.288879 
	C1030.664429,890.431030 1023.101624,886.181213 1015.634705,881.804382 
	C1014.119629,880.916382 1012.477783,878.599426 1012.545349,877.011536 
	C1012.672241,874.032349 1015.041199,872.630920 1018.184204,872.675049 
	C1024.273438,872.760620 1030.364868,872.700073 1037.109619,872.700073 
	C1036.280518,870.807007 1035.880371,869.385498 1035.108521,868.207520 
	C1024.706543,852.333679 1014.264954,836.485718 1003.790588,820.659546 
	C1002.882263,819.287109 1001.672852,818.113831 1000.307739,816.634155 
z"/>
<path fill="#47BFDD" opacity="1.000000" stroke="none" 
	d="
M1109.228271,797.661255 
	C1098.072388,781.253235 1095.316895,763.288269 1098.526367,744.593262 
	C1102.842896,719.448853 1117.139160,701.549805 1140.865479,691.882385 
	C1168.991333,680.422302 1195.254272,685.091614 1217.226196,705.317505 
	C1234.005005,720.763000 1242.710938,740.815002 1239.826294,764.621826 
	C1238.125854,778.656860 1233.941772,791.602051 1224.594482,802.451721 
	C1202.238403,828.401367 1171.240112,836.000244 1139.375000,823.287720 
	C1126.666260,818.217529 1116.848999,809.436584 1109.228271,797.661255 
M1196.275879,726.215576 
	C1186.428833,717.427673 1174.688477,714.831421 1161.953247,716.155579 
	C1148.888550,717.514038 1138.433716,723.266541 1132.429932,735.477966 
	C1127.045044,746.430847 1125.003052,757.723450 1128.797974,769.777954 
	C1135.367432,790.645325 1152.063232,802.725769 1174.380249,799.467712 
	C1186.396606,797.713501 1197.199829,791.315857 1203.826050,780.118286 
	C1213.830566,763.211243 1210.980591,741.953186 1196.275879,726.215576 
z"/>
<path fill="#47BFDD" opacity="1.000000" stroke="none" 
	d="
M1000.031982,975.375488 
	C1000.424683,980.636658 1000.956909,985.599915 1000.908020,990.557556 
	C1000.687927,1012.844666 1000.273804,1035.129761 1000.014954,1057.416748 
	C999.983459,1060.130371 999.442688,1062.041870 995.834717,1062.111450 
	C987.108826,1050.479004 978.682617,1038.928589 970.621826,1027.128662 
	C961.315308,1013.505249 952.305115,999.678711 943.267700,985.873901 
	C942.702393,985.010315 942.486084,983.200684 943.004272,982.451294 
	C953.401123,967.415039 963.929626,952.469727 974.483093,937.432861 
	C982.927612,949.937134 991.415833,962.506042 1000.031982,975.375488 
z"/>

</svg>